<mxfile host="app.diagrams.net" modified="2023-10-28T09:57:06.706Z" agent="Mozilla/5.0 (Windows NT 10.0; Win64; x64) AppleWebKit/537.36 (KHTML, like Gecko) Chrome/118.0.0.0 Safari/537.36" etag="9T2HyxQz03amBnRcjYNU" version="22.0.8" type="github">
  <diagram name="Trang-1" id="WOvSfj7Wc_SLSNNHOHkU">
    <mxGraphModel dx="2588" dy="1306" grid="0" gridSize="10" guides="1" tooltips="1" connect="1" arrows="1" fold="1" page="1" pageScale="1" pageWidth="2339" pageHeight="3300" math="0" shadow="0">
      <root>
        <mxCell id="0" />
        <mxCell id="1" parent="0" />
        <mxCell id="XxzaK0PWZzs4cHPtqlZt-7" value="" style="edgeStyle=orthogonalEdgeStyle;rounded=0;orthogonalLoop=1;jettySize=auto;html=1;strokeWidth=2;fontFamily=Times New Roman;" edge="1" parent="1" source="XxzaK0PWZzs4cHPtqlZt-1" target="XxzaK0PWZzs4cHPtqlZt-4">
          <mxGeometry relative="1" as="geometry" />
        </mxCell>
        <mxCell id="XxzaK0PWZzs4cHPtqlZt-1" value="&lt;font style=&quot;font-size: 21px;&quot;&gt;&lt;b&gt;P3&lt;/b&gt;&lt;/font&gt;" style="ellipse;whiteSpace=wrap;html=1;aspect=fixed;strokeWidth=3;fontFamily=Times New Roman;" vertex="1" parent="1">
          <mxGeometry x="220" y="251" width="62" height="62" as="geometry" />
        </mxCell>
        <mxCell id="XxzaK0PWZzs4cHPtqlZt-9" value="" style="edgeStyle=orthogonalEdgeStyle;rounded=0;orthogonalLoop=1;jettySize=auto;html=1;strokeWidth=2;fontFamily=Times New Roman;" edge="1" parent="1" source="XxzaK0PWZzs4cHPtqlZt-2" target="XxzaK0PWZzs4cHPtqlZt-5">
          <mxGeometry relative="1" as="geometry" />
        </mxCell>
        <mxCell id="XxzaK0PWZzs4cHPtqlZt-2" value="&lt;font style=&quot;font-size: 21px;&quot;&gt;&lt;b&gt;P5&lt;/b&gt;&lt;/font&gt;" style="ellipse;whiteSpace=wrap;html=1;aspect=fixed;strokeWidth=3;fontFamily=Times New Roman;" vertex="1" parent="1">
          <mxGeometry x="220" y="476" width="62" height="62" as="geometry" />
        </mxCell>
        <mxCell id="XxzaK0PWZzs4cHPtqlZt-8" value="" style="edgeStyle=orthogonalEdgeStyle;rounded=0;orthogonalLoop=1;jettySize=auto;html=1;strokeWidth=2;fontFamily=Times New Roman;" edge="1" parent="1" source="XxzaK0PWZzs4cHPtqlZt-3" target="XxzaK0PWZzs4cHPtqlZt-6">
          <mxGeometry relative="1" as="geometry" />
        </mxCell>
        <mxCell id="XxzaK0PWZzs4cHPtqlZt-3" value="&lt;font style=&quot;font-size: 21px;&quot;&gt;&lt;b&gt;P4&lt;/b&gt;&lt;/font&gt;" style="ellipse;whiteSpace=wrap;html=1;aspect=fixed;strokeWidth=3;fontFamily=Times New Roman;" vertex="1" parent="1">
          <mxGeometry x="220" y="362" width="62" height="62" as="geometry" />
        </mxCell>
        <mxCell id="XxzaK0PWZzs4cHPtqlZt-13" value="" style="edgeStyle=orthogonalEdgeStyle;rounded=0;orthogonalLoop=1;jettySize=auto;html=1;strokeWidth=2;fontFamily=Times New Roman;" edge="1" parent="1" source="XxzaK0PWZzs4cHPtqlZt-4">
          <mxGeometry relative="1" as="geometry">
            <mxPoint x="549" y="282" as="targetPoint" />
          </mxGeometry>
        </mxCell>
        <mxCell id="XxzaK0PWZzs4cHPtqlZt-4" value="&lt;font style=&quot;font-size: 21px;&quot;&gt;&lt;b&gt;F3&lt;/b&gt;&lt;/font&gt;" style="ellipse;whiteSpace=wrap;html=1;aspect=fixed;strokeWidth=3;fillColor=#dae8fc;strokeColor=#6c8ebf;fontFamily=Times New Roman;" vertex="1" parent="1">
          <mxGeometry x="376" y="251" width="62" height="62" as="geometry" />
        </mxCell>
        <mxCell id="XxzaK0PWZzs4cHPtqlZt-11" value="" style="edgeStyle=orthogonalEdgeStyle;rounded=0;orthogonalLoop=1;jettySize=auto;html=1;strokeWidth=2;fontFamily=Times New Roman;" edge="1" parent="1" source="XxzaK0PWZzs4cHPtqlZt-5" target="XxzaK0PWZzs4cHPtqlZt-6">
          <mxGeometry relative="1" as="geometry" />
        </mxCell>
        <mxCell id="XxzaK0PWZzs4cHPtqlZt-17" value="" style="edgeStyle=orthogonalEdgeStyle;rounded=0;orthogonalLoop=1;jettySize=auto;html=1;strokeWidth=2;fontFamily=Times New Roman;" edge="1" parent="1" source="XxzaK0PWZzs4cHPtqlZt-5">
          <mxGeometry relative="1" as="geometry">
            <mxPoint x="549" y="507" as="targetPoint" />
          </mxGeometry>
        </mxCell>
        <mxCell id="XxzaK0PWZzs4cHPtqlZt-5" value="&lt;font style=&quot;font-size: 21px;&quot;&gt;&lt;b&gt;F5&lt;/b&gt;&lt;/font&gt;" style="ellipse;whiteSpace=wrap;html=1;aspect=fixed;strokeWidth=3;fillColor=#dae8fc;strokeColor=#6c8ebf;fontFamily=Times New Roman;" vertex="1" parent="1">
          <mxGeometry x="376" y="476" width="62" height="62" as="geometry" />
        </mxCell>
        <mxCell id="XxzaK0PWZzs4cHPtqlZt-10" value="" style="edgeStyle=orthogonalEdgeStyle;rounded=0;orthogonalLoop=1;jettySize=auto;html=1;strokeWidth=2;fontFamily=Times New Roman;" edge="1" parent="1" source="XxzaK0PWZzs4cHPtqlZt-6" target="XxzaK0PWZzs4cHPtqlZt-4">
          <mxGeometry relative="1" as="geometry" />
        </mxCell>
        <mxCell id="XxzaK0PWZzs4cHPtqlZt-15" value="" style="edgeStyle=orthogonalEdgeStyle;rounded=0;orthogonalLoop=1;jettySize=auto;html=1;strokeWidth=2;fontFamily=Times New Roman;" edge="1" parent="1" source="XxzaK0PWZzs4cHPtqlZt-6">
          <mxGeometry relative="1" as="geometry">
            <mxPoint x="549" y="393" as="targetPoint" />
          </mxGeometry>
        </mxCell>
        <mxCell id="XxzaK0PWZzs4cHPtqlZt-6" value="&lt;font style=&quot;font-size: 21px;&quot;&gt;&lt;b&gt;F4&lt;/b&gt;&lt;/font&gt;" style="ellipse;whiteSpace=wrap;html=1;aspect=fixed;strokeWidth=3;fillColor=#dae8fc;strokeColor=#6c8ebf;fontFamily=Times New Roman;" vertex="1" parent="1">
          <mxGeometry x="376" y="362" width="62" height="62" as="geometry" />
        </mxCell>
        <mxCell id="XxzaK0PWZzs4cHPtqlZt-18" value="" style="edgeStyle=orthogonalEdgeStyle;rounded=0;orthogonalLoop=1;jettySize=auto;html=1;strokeWidth=2;fontFamily=Times New Roman;fontSize=27;" edge="1" parent="1" source="XxzaK0PWZzs4cHPtqlZt-19" target="XxzaK0PWZzs4cHPtqlZt-25">
          <mxGeometry relative="1" as="geometry" />
        </mxCell>
        <mxCell id="XxzaK0PWZzs4cHPtqlZt-19" value="&lt;font style=&quot;font-size: 27px;&quot;&gt;&lt;b style=&quot;font-size: 27px;&quot;&gt;P3&lt;/b&gt;&lt;/font&gt;" style="ellipse;whiteSpace=wrap;html=1;aspect=fixed;strokeWidth=3;fontFamily=Times New Roman;fontSize=27;" vertex="1" parent="1">
          <mxGeometry x="220" y="814" width="62" height="62" as="geometry" />
        </mxCell>
        <mxCell id="XxzaK0PWZzs4cHPtqlZt-20" value="" style="edgeStyle=orthogonalEdgeStyle;rounded=0;orthogonalLoop=1;jettySize=auto;html=1;strokeWidth=2;fontFamily=Times New Roman;fontSize=27;" edge="1" parent="1" source="XxzaK0PWZzs4cHPtqlZt-21" target="XxzaK0PWZzs4cHPtqlZt-28">
          <mxGeometry relative="1" as="geometry" />
        </mxCell>
        <mxCell id="XxzaK0PWZzs4cHPtqlZt-21" value="&lt;font style=&quot;font-size: 27px;&quot;&gt;&lt;b style=&quot;font-size: 27px;&quot;&gt;P5&lt;/b&gt;&lt;/font&gt;" style="ellipse;whiteSpace=wrap;html=1;aspect=fixed;strokeWidth=3;fontFamily=Times New Roman;fontSize=27;" vertex="1" parent="1">
          <mxGeometry x="220" y="1056" width="62" height="62" as="geometry" />
        </mxCell>
        <mxCell id="XxzaK0PWZzs4cHPtqlZt-22" value="" style="edgeStyle=orthogonalEdgeStyle;rounded=0;orthogonalLoop=1;jettySize=auto;html=1;strokeWidth=2;fontFamily=Times New Roman;fontSize=27;" edge="1" parent="1" source="XxzaK0PWZzs4cHPtqlZt-23" target="XxzaK0PWZzs4cHPtqlZt-31">
          <mxGeometry relative="1" as="geometry" />
        </mxCell>
        <mxCell id="XxzaK0PWZzs4cHPtqlZt-23" value="&lt;font style=&quot;font-size: 27px;&quot;&gt;&lt;b style=&quot;font-size: 27px;&quot;&gt;P4&lt;/b&gt;&lt;/font&gt;" style="ellipse;whiteSpace=wrap;html=1;aspect=fixed;strokeWidth=3;fontFamily=Times New Roman;fontSize=27;" vertex="1" parent="1">
          <mxGeometry x="220" y="935" width="62" height="62" as="geometry" />
        </mxCell>
        <mxCell id="XxzaK0PWZzs4cHPtqlZt-36" value="" style="edgeStyle=orthogonalEdgeStyle;rounded=0;orthogonalLoop=1;jettySize=auto;html=1;strokeWidth=2;fontFamily=Times New Roman;fontSize=27;" edge="1" parent="1" source="XxzaK0PWZzs4cHPtqlZt-25" target="XxzaK0PWZzs4cHPtqlZt-33">
          <mxGeometry relative="1" as="geometry" />
        </mxCell>
        <mxCell id="XxzaK0PWZzs4cHPtqlZt-25" value="&lt;font style=&quot;font-size: 27px;&quot;&gt;&lt;b style=&quot;font-size: 27px;&quot;&gt;F3&lt;/b&gt;&lt;/font&gt;" style="ellipse;whiteSpace=wrap;html=1;aspect=fixed;strokeWidth=3;fillColor=#dae8fc;strokeColor=#6c8ebf;fontFamily=Times New Roman;fontSize=27;" vertex="1" parent="1">
          <mxGeometry x="358" y="814" width="62" height="62" as="geometry" />
        </mxCell>
        <mxCell id="XxzaK0PWZzs4cHPtqlZt-26" value="" style="edgeStyle=orthogonalEdgeStyle;rounded=0;orthogonalLoop=1;jettySize=auto;html=1;strokeWidth=2;fontFamily=Times New Roman;fontSize=27;" edge="1" parent="1" source="XxzaK0PWZzs4cHPtqlZt-28" target="XxzaK0PWZzs4cHPtqlZt-31">
          <mxGeometry relative="1" as="geometry" />
        </mxCell>
        <mxCell id="XxzaK0PWZzs4cHPtqlZt-40" value="" style="edgeStyle=orthogonalEdgeStyle;shape=connector;rounded=0;orthogonalLoop=1;jettySize=auto;html=1;labelBackgroundColor=default;strokeColor=default;strokeWidth=2;align=center;verticalAlign=middle;fontFamily=Times New Roman;fontSize=27;fontColor=default;endArrow=classic;" edge="1" parent="1" source="XxzaK0PWZzs4cHPtqlZt-28" target="XxzaK0PWZzs4cHPtqlZt-34">
          <mxGeometry relative="1" as="geometry" />
        </mxCell>
        <mxCell id="XxzaK0PWZzs4cHPtqlZt-28" value="&lt;font style=&quot;font-size: 27px;&quot;&gt;&lt;b style=&quot;font-size: 27px;&quot;&gt;F5&lt;/b&gt;&lt;/font&gt;" style="ellipse;whiteSpace=wrap;html=1;aspect=fixed;strokeWidth=3;fillColor=#dae8fc;strokeColor=#6c8ebf;fontFamily=Times New Roman;fontSize=27;" vertex="1" parent="1">
          <mxGeometry x="358" y="1056" width="62" height="62" as="geometry" />
        </mxCell>
        <mxCell id="XxzaK0PWZzs4cHPtqlZt-29" value="" style="edgeStyle=orthogonalEdgeStyle;rounded=0;orthogonalLoop=1;jettySize=auto;html=1;strokeWidth=2;fontFamily=Times New Roman;fontSize=27;" edge="1" parent="1" source="XxzaK0PWZzs4cHPtqlZt-31" target="XxzaK0PWZzs4cHPtqlZt-25">
          <mxGeometry relative="1" as="geometry" />
        </mxCell>
        <mxCell id="XxzaK0PWZzs4cHPtqlZt-39" value="" style="edgeStyle=orthogonalEdgeStyle;shape=connector;rounded=0;orthogonalLoop=1;jettySize=auto;html=1;labelBackgroundColor=default;strokeColor=default;strokeWidth=2;align=center;verticalAlign=middle;fontFamily=Times New Roman;fontSize=27;fontColor=default;endArrow=classic;" edge="1" parent="1" source="XxzaK0PWZzs4cHPtqlZt-31" target="XxzaK0PWZzs4cHPtqlZt-35">
          <mxGeometry relative="1" as="geometry" />
        </mxCell>
        <mxCell id="XxzaK0PWZzs4cHPtqlZt-31" value="&lt;font style=&quot;font-size: 27px;&quot;&gt;&lt;b style=&quot;font-size: 27px;&quot;&gt;F4&lt;/b&gt;&lt;/font&gt;" style="ellipse;whiteSpace=wrap;html=1;aspect=fixed;strokeWidth=3;fillColor=#dae8fc;strokeColor=#6c8ebf;fontFamily=Times New Roman;fontSize=27;" vertex="1" parent="1">
          <mxGeometry x="358" y="935" width="62" height="62" as="geometry" />
        </mxCell>
        <mxCell id="XxzaK0PWZzs4cHPtqlZt-32" value="&lt;font style=&quot;font-size: 18px;&quot;&gt;&lt;b&gt;FPN&lt;/b&gt;&lt;/font&gt;" style="text;html=1;align=center;verticalAlign=middle;resizable=0;points=[];autosize=1;strokeColor=none;fillColor=none;fontFamily=Times New Roman;" vertex="1" parent="1">
          <mxGeometry x="381" y="564" width="53" height="34" as="geometry" />
        </mxCell>
        <mxCell id="XxzaK0PWZzs4cHPtqlZt-41" value="" style="edgeStyle=orthogonalEdgeStyle;shape=connector;rounded=0;orthogonalLoop=1;jettySize=auto;html=1;labelBackgroundColor=default;strokeColor=default;strokeWidth=2;align=center;verticalAlign=middle;fontFamily=Times New Roman;fontSize=27;fontColor=default;endArrow=classic;" edge="1" parent="1" source="XxzaK0PWZzs4cHPtqlZt-33" target="XxzaK0PWZzs4cHPtqlZt-35">
          <mxGeometry relative="1" as="geometry" />
        </mxCell>
        <mxCell id="XxzaK0PWZzs4cHPtqlZt-76" value="" style="edgeStyle=orthogonalEdgeStyle;shape=connector;rounded=0;orthogonalLoop=1;jettySize=auto;html=1;labelBackgroundColor=default;strokeColor=default;strokeWidth=2;align=center;verticalAlign=middle;fontFamily=Times New Roman;fontSize=27;fontColor=default;endArrow=classic;" edge="1" parent="1">
          <mxGeometry relative="1" as="geometry">
            <mxPoint x="548.0000000000005" y="845" as="sourcePoint" />
            <mxPoint x="659" y="845" as="targetPoint" />
          </mxGeometry>
        </mxCell>
        <mxCell id="XxzaK0PWZzs4cHPtqlZt-33" value="&lt;font style=&quot;font-size: 27px;&quot;&gt;&lt;b style=&quot;font-size: 27px;&quot;&gt;D3&lt;/b&gt;&lt;/font&gt;" style="ellipse;whiteSpace=wrap;html=1;aspect=fixed;strokeWidth=3;fillColor=#d5e8d4;strokeColor=#82b366;fontFamily=Times New Roman;fontSize=27;" vertex="1" parent="1">
          <mxGeometry x="497" y="814" width="62" height="62" as="geometry" />
        </mxCell>
        <mxCell id="XxzaK0PWZzs4cHPtqlZt-80" value="" style="edgeStyle=orthogonalEdgeStyle;shape=connector;rounded=0;orthogonalLoop=1;jettySize=auto;html=1;labelBackgroundColor=default;strokeColor=default;strokeWidth=2;align=center;verticalAlign=middle;fontFamily=Times New Roman;fontSize=27;fontColor=default;endArrow=classic;" edge="1" parent="1">
          <mxGeometry relative="1" as="geometry">
            <mxPoint x="548.0000000000005" y="1087" as="sourcePoint" />
            <mxPoint x="659" y="1087" as="targetPoint" />
          </mxGeometry>
        </mxCell>
        <mxCell id="XxzaK0PWZzs4cHPtqlZt-34" value="&lt;font style=&quot;font-size: 27px;&quot;&gt;&lt;b style=&quot;font-size: 27px;&quot;&gt;D5&lt;/b&gt;&lt;/font&gt;" style="ellipse;whiteSpace=wrap;html=1;aspect=fixed;strokeWidth=3;fillColor=#d5e8d4;strokeColor=#82b366;fontFamily=Times New Roman;fontSize=27;" vertex="1" parent="1">
          <mxGeometry x="497" y="1056" width="62" height="62" as="geometry" />
        </mxCell>
        <mxCell id="XxzaK0PWZzs4cHPtqlZt-42" value="" style="edgeStyle=orthogonalEdgeStyle;shape=connector;rounded=0;orthogonalLoop=1;jettySize=auto;html=1;labelBackgroundColor=default;strokeColor=default;strokeWidth=2;align=center;verticalAlign=middle;fontFamily=Times New Roman;fontSize=27;fontColor=default;endArrow=classic;" edge="1" parent="1" source="XxzaK0PWZzs4cHPtqlZt-35" target="XxzaK0PWZzs4cHPtqlZt-34">
          <mxGeometry relative="1" as="geometry" />
        </mxCell>
        <mxCell id="XxzaK0PWZzs4cHPtqlZt-78" value="" style="edgeStyle=orthogonalEdgeStyle;shape=connector;rounded=0;orthogonalLoop=1;jettySize=auto;html=1;labelBackgroundColor=default;strokeColor=default;strokeWidth=2;align=center;verticalAlign=middle;fontFamily=Times New Roman;fontSize=27;fontColor=default;endArrow=classic;" edge="1" parent="1">
          <mxGeometry relative="1" as="geometry">
            <mxPoint x="547.9999045617924" y="966.0769230769231" as="sourcePoint" />
            <mxPoint x="659" y="966" as="targetPoint" />
          </mxGeometry>
        </mxCell>
        <mxCell id="XxzaK0PWZzs4cHPtqlZt-35" value="&lt;font style=&quot;font-size: 27px;&quot;&gt;&lt;b style=&quot;font-size: 27px;&quot;&gt;D4&lt;/b&gt;&lt;/font&gt;" style="ellipse;whiteSpace=wrap;html=1;aspect=fixed;strokeWidth=3;fillColor=#d5e8d4;strokeColor=#82b366;fontFamily=Times New Roman;fontSize=27;" vertex="1" parent="1">
          <mxGeometry x="497" y="935" width="62" height="62" as="geometry" />
        </mxCell>
        <mxCell id="XxzaK0PWZzs4cHPtqlZt-47" value="" style="edgeStyle=orthogonalEdgeStyle;rounded=0;orthogonalLoop=1;jettySize=auto;html=1;strokeWidth=2;fontFamily=Times New Roman;fontSize=27;" edge="1" parent="1" source="XxzaK0PWZzs4cHPtqlZt-48" target="XxzaK0PWZzs4cHPtqlZt-54">
          <mxGeometry relative="1" as="geometry" />
        </mxCell>
        <mxCell id="XxzaK0PWZzs4cHPtqlZt-48" value="&lt;font style=&quot;font-size: 27px;&quot;&gt;&lt;b style=&quot;font-size: 27px;&quot;&gt;P3&lt;/b&gt;&lt;/font&gt;" style="ellipse;whiteSpace=wrap;html=1;aspect=fixed;strokeWidth=3;fontFamily=Times New Roman;fontSize=27;" vertex="1" parent="1">
          <mxGeometry x="761" y="813" width="62" height="62" as="geometry" />
        </mxCell>
        <mxCell id="XxzaK0PWZzs4cHPtqlZt-49" value="" style="edgeStyle=orthogonalEdgeStyle;rounded=0;orthogonalLoop=1;jettySize=auto;html=1;strokeWidth=2;fontFamily=Times New Roman;fontSize=27;" edge="1" parent="1" source="XxzaK0PWZzs4cHPtqlZt-50" target="XxzaK0PWZzs4cHPtqlZt-57">
          <mxGeometry relative="1" as="geometry" />
        </mxCell>
        <mxCell id="XxzaK0PWZzs4cHPtqlZt-50" value="&lt;font style=&quot;font-size: 27px;&quot;&gt;&lt;b style=&quot;font-size: 27px;&quot;&gt;P5&lt;/b&gt;&lt;/font&gt;" style="ellipse;whiteSpace=wrap;html=1;aspect=fixed;strokeWidth=3;fontFamily=Times New Roman;fontSize=27;" vertex="1" parent="1">
          <mxGeometry x="761" y="1055" width="62" height="62" as="geometry" />
        </mxCell>
        <mxCell id="XxzaK0PWZzs4cHPtqlZt-51" value="" style="edgeStyle=orthogonalEdgeStyle;rounded=0;orthogonalLoop=1;jettySize=auto;html=1;strokeWidth=2;fontFamily=Times New Roman;fontSize=27;" edge="1" parent="1" source="XxzaK0PWZzs4cHPtqlZt-52" target="XxzaK0PWZzs4cHPtqlZt-60">
          <mxGeometry relative="1" as="geometry" />
        </mxCell>
        <mxCell id="XxzaK0PWZzs4cHPtqlZt-52" value="&lt;font style=&quot;font-size: 27px;&quot;&gt;&lt;b style=&quot;font-size: 27px;&quot;&gt;P4&lt;/b&gt;&lt;/font&gt;" style="ellipse;whiteSpace=wrap;html=1;aspect=fixed;strokeWidth=3;fontFamily=Times New Roman;fontSize=27;" vertex="1" parent="1">
          <mxGeometry x="761" y="934" width="62" height="62" as="geometry" />
        </mxCell>
        <mxCell id="XxzaK0PWZzs4cHPtqlZt-53" value="" style="edgeStyle=orthogonalEdgeStyle;rounded=0;orthogonalLoop=1;jettySize=auto;html=1;strokeWidth=2;fontFamily=Times New Roman;fontSize=27;" edge="1" parent="1" source="XxzaK0PWZzs4cHPtqlZt-54" target="XxzaK0PWZzs4cHPtqlZt-62">
          <mxGeometry relative="1" as="geometry" />
        </mxCell>
        <mxCell id="XxzaK0PWZzs4cHPtqlZt-86" value="" style="edgeStyle=orthogonalEdgeStyle;shape=connector;rounded=0;orthogonalLoop=1;jettySize=auto;html=1;labelBackgroundColor=default;strokeColor=default;strokeWidth=2;align=center;verticalAlign=middle;fontFamily=Times New Roman;fontSize=27;fontColor=default;endArrow=classic;" edge="1" parent="1" source="XxzaK0PWZzs4cHPtqlZt-54" target="XxzaK0PWZzs4cHPtqlZt-82">
          <mxGeometry relative="1" as="geometry" />
        </mxCell>
        <mxCell id="XxzaK0PWZzs4cHPtqlZt-54" value="&lt;font style=&quot;font-size: 27px;&quot;&gt;&lt;b style=&quot;font-size: 27px;&quot;&gt;F3&lt;/b&gt;&lt;/font&gt;" style="ellipse;whiteSpace=wrap;html=1;aspect=fixed;strokeWidth=3;fillColor=#dae8fc;strokeColor=#6c8ebf;fontFamily=Times New Roman;fontSize=27;" vertex="1" parent="1">
          <mxGeometry x="904" y="813" width="62" height="62" as="geometry" />
        </mxCell>
        <mxCell id="XxzaK0PWZzs4cHPtqlZt-55" value="" style="edgeStyle=orthogonalEdgeStyle;rounded=0;orthogonalLoop=1;jettySize=auto;html=1;strokeWidth=2;fontFamily=Times New Roman;fontSize=27;" edge="1" parent="1" source="XxzaK0PWZzs4cHPtqlZt-57" target="XxzaK0PWZzs4cHPtqlZt-60">
          <mxGeometry relative="1" as="geometry" />
        </mxCell>
        <mxCell id="XxzaK0PWZzs4cHPtqlZt-56" value="" style="edgeStyle=orthogonalEdgeStyle;shape=connector;rounded=0;orthogonalLoop=1;jettySize=auto;html=1;labelBackgroundColor=default;strokeColor=default;strokeWidth=2;align=center;verticalAlign=middle;fontFamily=Times New Roman;fontSize=27;fontColor=default;endArrow=classic;" edge="1" parent="1" source="XxzaK0PWZzs4cHPtqlZt-57" target="XxzaK0PWZzs4cHPtqlZt-63">
          <mxGeometry relative="1" as="geometry" />
        </mxCell>
        <mxCell id="XxzaK0PWZzs4cHPtqlZt-57" value="&lt;font style=&quot;font-size: 27px;&quot;&gt;&lt;b style=&quot;font-size: 27px;&quot;&gt;F5&lt;/b&gt;&lt;/font&gt;" style="ellipse;whiteSpace=wrap;html=1;aspect=fixed;strokeWidth=3;fillColor=#dae8fc;strokeColor=#6c8ebf;fontFamily=Times New Roman;fontSize=27;" vertex="1" parent="1">
          <mxGeometry x="904" y="1055" width="62" height="62" as="geometry" />
        </mxCell>
        <mxCell id="XxzaK0PWZzs4cHPtqlZt-58" value="" style="edgeStyle=orthogonalEdgeStyle;rounded=0;orthogonalLoop=1;jettySize=auto;html=1;strokeWidth=2;fontFamily=Times New Roman;fontSize=27;" edge="1" parent="1" source="XxzaK0PWZzs4cHPtqlZt-60" target="XxzaK0PWZzs4cHPtqlZt-54">
          <mxGeometry relative="1" as="geometry" />
        </mxCell>
        <mxCell id="XxzaK0PWZzs4cHPtqlZt-59" value="" style="edgeStyle=orthogonalEdgeStyle;shape=connector;rounded=0;orthogonalLoop=1;jettySize=auto;html=1;labelBackgroundColor=default;strokeColor=default;strokeWidth=2;align=center;verticalAlign=middle;fontFamily=Times New Roman;fontSize=27;fontColor=default;endArrow=classic;" edge="1" parent="1" source="XxzaK0PWZzs4cHPtqlZt-60" target="XxzaK0PWZzs4cHPtqlZt-65">
          <mxGeometry relative="1" as="geometry" />
        </mxCell>
        <mxCell id="XxzaK0PWZzs4cHPtqlZt-60" value="&lt;font style=&quot;font-size: 27px;&quot;&gt;&lt;b style=&quot;font-size: 27px;&quot;&gt;F4&lt;/b&gt;&lt;/font&gt;" style="ellipse;whiteSpace=wrap;html=1;aspect=fixed;strokeWidth=3;fillColor=#dae8fc;strokeColor=#6c8ebf;fontFamily=Times New Roman;fontSize=27;" vertex="1" parent="1">
          <mxGeometry x="904" y="934" width="62" height="62" as="geometry" />
        </mxCell>
        <mxCell id="XxzaK0PWZzs4cHPtqlZt-61" value="" style="edgeStyle=orthogonalEdgeStyle;shape=connector;rounded=0;orthogonalLoop=1;jettySize=auto;html=1;labelBackgroundColor=default;strokeColor=default;strokeWidth=2;align=center;verticalAlign=middle;fontFamily=Times New Roman;fontSize=27;fontColor=default;endArrow=classic;" edge="1" parent="1" source="XxzaK0PWZzs4cHPtqlZt-62" target="XxzaK0PWZzs4cHPtqlZt-65">
          <mxGeometry relative="1" as="geometry" />
        </mxCell>
        <mxCell id="XxzaK0PWZzs4cHPtqlZt-92" value="" style="edgeStyle=orthogonalEdgeStyle;shape=connector;rounded=0;orthogonalLoop=1;jettySize=auto;html=1;labelBackgroundColor=default;strokeColor=default;strokeWidth=2;align=center;verticalAlign=middle;fontFamily=Times New Roman;fontSize=27;fontColor=default;endArrow=classic;" edge="1" parent="1">
          <mxGeometry relative="1" as="geometry">
            <mxPoint x="1108.0000000000005" y="844" as="sourcePoint" />
            <mxPoint x="1219" y="844.0000000000002" as="targetPoint" />
          </mxGeometry>
        </mxCell>
        <mxCell id="XxzaK0PWZzs4cHPtqlZt-62" value="&lt;font style=&quot;font-size: 27px;&quot;&gt;&lt;b style=&quot;font-size: 27px;&quot;&gt;D3&lt;/b&gt;&lt;/font&gt;" style="ellipse;whiteSpace=wrap;html=1;aspect=fixed;strokeWidth=3;fillColor=#d5e8d4;strokeColor=#82b366;fontFamily=Times New Roman;fontSize=27;" vertex="1" parent="1">
          <mxGeometry x="1051" y="813" width="62" height="62" as="geometry" />
        </mxCell>
        <mxCell id="XxzaK0PWZzs4cHPtqlZt-96" value="" style="edgeStyle=orthogonalEdgeStyle;shape=connector;rounded=0;orthogonalLoop=1;jettySize=auto;html=1;labelBackgroundColor=default;strokeColor=default;strokeWidth=2;align=center;verticalAlign=middle;fontFamily=Times New Roman;fontSize=27;fontColor=default;endArrow=classic;" edge="1" parent="1">
          <mxGeometry relative="1" as="geometry">
            <mxPoint x="1108.0000000000005" y="1086" as="sourcePoint" />
            <mxPoint x="1219" y="1086" as="targetPoint" />
          </mxGeometry>
        </mxCell>
        <mxCell id="XxzaK0PWZzs4cHPtqlZt-63" value="&lt;font style=&quot;font-size: 27px;&quot;&gt;&lt;b style=&quot;font-size: 27px;&quot;&gt;D5&lt;/b&gt;&lt;/font&gt;" style="ellipse;whiteSpace=wrap;html=1;aspect=fixed;strokeWidth=3;fillColor=#d5e8d4;strokeColor=#82b366;fontFamily=Times New Roman;fontSize=27;" vertex="1" parent="1">
          <mxGeometry x="1051" y="1055" width="62" height="62" as="geometry" />
        </mxCell>
        <mxCell id="XxzaK0PWZzs4cHPtqlZt-64" value="" style="edgeStyle=orthogonalEdgeStyle;shape=connector;rounded=0;orthogonalLoop=1;jettySize=auto;html=1;labelBackgroundColor=default;strokeColor=default;strokeWidth=2;align=center;verticalAlign=middle;fontFamily=Times New Roman;fontSize=27;fontColor=default;endArrow=classic;" edge="1" parent="1" source="XxzaK0PWZzs4cHPtqlZt-65" target="XxzaK0PWZzs4cHPtqlZt-63">
          <mxGeometry relative="1" as="geometry" />
        </mxCell>
        <mxCell id="XxzaK0PWZzs4cHPtqlZt-94" value="" style="edgeStyle=orthogonalEdgeStyle;shape=connector;rounded=0;orthogonalLoop=1;jettySize=auto;html=1;labelBackgroundColor=default;strokeColor=default;strokeWidth=2;align=center;verticalAlign=middle;fontFamily=Times New Roman;fontSize=27;fontColor=default;endArrow=classic;" edge="1" parent="1">
          <mxGeometry relative="1" as="geometry">
            <mxPoint x="1107.9999045617924" y="965.0769230769231" as="sourcePoint" />
            <mxPoint x="1219" y="965" as="targetPoint" />
          </mxGeometry>
        </mxCell>
        <mxCell id="XxzaK0PWZzs4cHPtqlZt-65" value="&lt;font style=&quot;font-size: 27px;&quot;&gt;&lt;b style=&quot;font-size: 27px;&quot;&gt;D4&lt;/b&gt;&lt;/font&gt;" style="ellipse;whiteSpace=wrap;html=1;aspect=fixed;strokeWidth=3;fillColor=#d5e8d4;strokeColor=#82b366;fontFamily=Times New Roman;fontSize=27;" vertex="1" parent="1">
          <mxGeometry x="1051" y="934" width="62" height="62" as="geometry" />
        </mxCell>
        <mxCell id="XxzaK0PWZzs4cHPtqlZt-84" value="" style="edgeStyle=orthogonalEdgeStyle;shape=connector;rounded=0;orthogonalLoop=1;jettySize=auto;html=1;labelBackgroundColor=default;strokeColor=default;strokeWidth=2;align=center;verticalAlign=middle;fontFamily=Times New Roman;fontSize=27;fontColor=default;endArrow=classic;" edge="1" parent="1" source="XxzaK0PWZzs4cHPtqlZt-81" target="XxzaK0PWZzs4cHPtqlZt-82">
          <mxGeometry relative="1" as="geometry" />
        </mxCell>
        <mxCell id="XxzaK0PWZzs4cHPtqlZt-81" value="&lt;font style=&quot;font-size: 27px;&quot;&gt;&lt;b style=&quot;font-size: 27px;&quot;&gt;P2&lt;/b&gt;&lt;/font&gt;" style="ellipse;whiteSpace=wrap;html=1;aspect=fixed;strokeWidth=3;fontFamily=Times New Roman;fontSize=27;" vertex="1" parent="1">
          <mxGeometry x="761" y="692" width="62" height="62" as="geometry" />
        </mxCell>
        <mxCell id="XxzaK0PWZzs4cHPtqlZt-85" value="" style="edgeStyle=orthogonalEdgeStyle;shape=connector;rounded=0;orthogonalLoop=1;jettySize=auto;html=1;labelBackgroundColor=default;strokeColor=default;strokeWidth=2;align=center;verticalAlign=middle;fontFamily=Times New Roman;fontSize=27;fontColor=default;endArrow=classic;" edge="1" parent="1" source="XxzaK0PWZzs4cHPtqlZt-82" target="XxzaK0PWZzs4cHPtqlZt-83">
          <mxGeometry relative="1" as="geometry" />
        </mxCell>
        <mxCell id="XxzaK0PWZzs4cHPtqlZt-82" value="&lt;font style=&quot;font-size: 27px;&quot;&gt;&lt;b style=&quot;font-size: 27px;&quot;&gt;F2&lt;/b&gt;&lt;/font&gt;" style="ellipse;whiteSpace=wrap;html=1;aspect=fixed;strokeWidth=3;fillColor=#dae8fc;strokeColor=#6c8ebf;fontFamily=Times New Roman;fontSize=27;" vertex="1" parent="1">
          <mxGeometry x="904" y="692" width="62" height="62" as="geometry" />
        </mxCell>
        <mxCell id="XxzaK0PWZzs4cHPtqlZt-88" value="" style="edgeStyle=orthogonalEdgeStyle;shape=connector;rounded=0;orthogonalLoop=1;jettySize=auto;html=1;labelBackgroundColor=default;strokeColor=default;strokeWidth=2;align=center;verticalAlign=middle;fontFamily=Times New Roman;fontSize=27;fontColor=default;endArrow=classic;" edge="1" parent="1" source="XxzaK0PWZzs4cHPtqlZt-83" target="XxzaK0PWZzs4cHPtqlZt-62">
          <mxGeometry relative="1" as="geometry" />
        </mxCell>
        <mxCell id="XxzaK0PWZzs4cHPtqlZt-90" value="" style="edgeStyle=orthogonalEdgeStyle;shape=connector;rounded=0;orthogonalLoop=1;jettySize=auto;html=1;labelBackgroundColor=default;strokeColor=default;strokeWidth=2;align=center;verticalAlign=middle;fontFamily=Times New Roman;fontSize=27;fontColor=default;endArrow=classic;" edge="1" parent="1">
          <mxGeometry relative="1" as="geometry">
            <mxPoint x="1107.9999045617924" y="723.0769230769231" as="sourcePoint" />
            <mxPoint x="1219" y="723" as="targetPoint" />
          </mxGeometry>
        </mxCell>
        <mxCell id="XxzaK0PWZzs4cHPtqlZt-83" value="&lt;font style=&quot;font-size: 27px;&quot;&gt;&lt;b style=&quot;font-size: 27px;&quot;&gt;D2&lt;/b&gt;&lt;/font&gt;" style="ellipse;whiteSpace=wrap;html=1;aspect=fixed;strokeWidth=3;fillColor=#d5e8d4;strokeColor=#82b366;fontFamily=Times New Roman;fontSize=27;" vertex="1" parent="1">
          <mxGeometry x="1051" y="692" width="62" height="62" as="geometry" />
        </mxCell>
        <mxCell id="XxzaK0PWZzs4cHPtqlZt-97" value="" style="edgeStyle=orthogonalEdgeStyle;rounded=0;orthogonalLoop=1;jettySize=auto;html=1;strokeWidth=2;fontFamily=Times New Roman;fontSize=27;" edge="1" parent="1" source="XxzaK0PWZzs4cHPtqlZt-98" target="XxzaK0PWZzs4cHPtqlZt-105">
          <mxGeometry relative="1" as="geometry" />
        </mxCell>
        <mxCell id="XxzaK0PWZzs4cHPtqlZt-135" style="edgeStyle=orthogonalEdgeStyle;shape=connector;orthogonalLoop=1;jettySize=auto;html=1;exitX=0.5;exitY=0;exitDx=0;exitDy=0;entryX=0;entryY=0;entryDx=0;entryDy=0;labelBackgroundColor=default;strokeColor=default;strokeWidth=2;align=center;verticalAlign=middle;fontFamily=Times New Roman;fontSize=27;fontColor=default;endArrow=classic;curved=1;" edge="1" parent="1">
          <mxGeometry relative="1" as="geometry">
            <mxPoint x="1361" y="811.95" as="sourcePoint" />
            <mxPoint x="1629.0796897832201" y="821.0296897832204" as="targetPoint" />
            <Array as="points">
              <mxPoint x="1361" y="775" />
              <mxPoint x="1629" y="775" />
            </Array>
          </mxGeometry>
        </mxCell>
        <mxCell id="XxzaK0PWZzs4cHPtqlZt-98" value="&lt;font style=&quot;font-size: 27px;&quot;&gt;&lt;b style=&quot;font-size: 27px;&quot;&gt;P3&lt;/b&gt;&lt;/font&gt;" style="ellipse;whiteSpace=wrap;html=1;aspect=fixed;strokeWidth=3;fontFamily=Times New Roman;fontSize=27;" vertex="1" parent="1">
          <mxGeometry x="1330" y="813" width="62" height="62" as="geometry" />
        </mxCell>
        <mxCell id="XxzaK0PWZzs4cHPtqlZt-137" style="edgeStyle=orthogonalEdgeStyle;shape=connector;rounded=0;orthogonalLoop=1;jettySize=auto;html=1;entryX=0;entryY=0.5;entryDx=0;entryDy=0;labelBackgroundColor=default;strokeColor=default;strokeWidth=2;align=center;verticalAlign=middle;fontFamily=Times New Roman;fontSize=27;fontColor=default;endArrow=classic;" edge="1" parent="1" source="XxzaK0PWZzs4cHPtqlZt-100" target="XxzaK0PWZzs4cHPtqlZt-116">
          <mxGeometry relative="1" as="geometry" />
        </mxCell>
        <mxCell id="XxzaK0PWZzs4cHPtqlZt-100" value="&lt;font style=&quot;font-size: 27px;&quot;&gt;&lt;b style=&quot;font-size: 27px;&quot;&gt;P5&lt;/b&gt;&lt;/font&gt;" style="ellipse;whiteSpace=wrap;html=1;aspect=fixed;strokeWidth=3;fontFamily=Times New Roman;fontSize=27;" vertex="1" parent="1">
          <mxGeometry x="1330" y="1055" width="62" height="62" as="geometry" />
        </mxCell>
        <mxCell id="XxzaK0PWZzs4cHPtqlZt-101" value="" style="edgeStyle=orthogonalEdgeStyle;rounded=0;orthogonalLoop=1;jettySize=auto;html=1;strokeWidth=2;fontFamily=Times New Roman;fontSize=27;" edge="1" parent="1" source="XxzaK0PWZzs4cHPtqlZt-102" target="XxzaK0PWZzs4cHPtqlZt-111">
          <mxGeometry relative="1" as="geometry" />
        </mxCell>
        <mxCell id="XxzaK0PWZzs4cHPtqlZt-133" style="edgeStyle=orthogonalEdgeStyle;shape=connector;orthogonalLoop=1;jettySize=auto;html=1;entryX=0;entryY=0;entryDx=0;entryDy=0;labelBackgroundColor=default;strokeColor=default;strokeWidth=2;align=center;verticalAlign=middle;fontFamily=Times New Roman;fontSize=27;fontColor=default;endArrow=classic;curved=1;" edge="1" parent="1">
          <mxGeometry relative="1" as="geometry">
            <mxPoint x="1361" y="933.9999999999998" as="sourcePoint" />
            <mxPoint x="1629.0796897832201" y="943.0796897832201" as="targetPoint" />
            <Array as="points">
              <mxPoint x="1361" y="906" />
              <mxPoint x="1629" y="906" />
            </Array>
          </mxGeometry>
        </mxCell>
        <mxCell id="XxzaK0PWZzs4cHPtqlZt-102" value="&lt;font style=&quot;font-size: 27px;&quot;&gt;&lt;b style=&quot;font-size: 27px;&quot;&gt;P4&lt;/b&gt;&lt;/font&gt;" style="ellipse;whiteSpace=wrap;html=1;aspect=fixed;strokeWidth=3;fontFamily=Times New Roman;fontSize=27;" vertex="1" parent="1">
          <mxGeometry x="1330" y="934" width="62" height="62" as="geometry" />
        </mxCell>
        <mxCell id="XxzaK0PWZzs4cHPtqlZt-103" value="" style="edgeStyle=orthogonalEdgeStyle;rounded=0;orthogonalLoop=1;jettySize=auto;html=1;strokeWidth=2;fontFamily=Times New Roman;fontSize=27;" edge="1" parent="1" source="XxzaK0PWZzs4cHPtqlZt-105" target="XxzaK0PWZzs4cHPtqlZt-114">
          <mxGeometry relative="1" as="geometry" />
        </mxCell>
        <mxCell id="XxzaK0PWZzs4cHPtqlZt-105" value="&lt;font style=&quot;font-size: 27px;&quot;&gt;&lt;b style=&quot;font-size: 27px;&quot;&gt;F3&lt;/b&gt;&lt;/font&gt;" style="ellipse;whiteSpace=wrap;html=1;aspect=fixed;strokeWidth=3;fillColor=#dae8fc;strokeColor=#6c8ebf;fontFamily=Times New Roman;fontSize=27;" vertex="1" parent="1">
          <mxGeometry x="1473" y="813" width="62" height="62" as="geometry" />
        </mxCell>
        <mxCell id="XxzaK0PWZzs4cHPtqlZt-109" value="" style="edgeStyle=orthogonalEdgeStyle;rounded=0;orthogonalLoop=1;jettySize=auto;html=1;strokeWidth=2;fontFamily=Times New Roman;fontSize=27;" edge="1" parent="1" source="XxzaK0PWZzs4cHPtqlZt-111" target="XxzaK0PWZzs4cHPtqlZt-105">
          <mxGeometry relative="1" as="geometry" />
        </mxCell>
        <mxCell id="XxzaK0PWZzs4cHPtqlZt-110" value="" style="edgeStyle=orthogonalEdgeStyle;shape=connector;rounded=0;orthogonalLoop=1;jettySize=auto;html=1;labelBackgroundColor=default;strokeColor=default;strokeWidth=2;align=center;verticalAlign=middle;fontFamily=Times New Roman;fontSize=27;fontColor=default;endArrow=classic;" edge="1" parent="1" source="XxzaK0PWZzs4cHPtqlZt-111" target="XxzaK0PWZzs4cHPtqlZt-119">
          <mxGeometry relative="1" as="geometry" />
        </mxCell>
        <mxCell id="XxzaK0PWZzs4cHPtqlZt-111" value="&lt;font style=&quot;font-size: 27px;&quot;&gt;&lt;b style=&quot;font-size: 27px;&quot;&gt;F4&lt;/b&gt;&lt;/font&gt;" style="ellipse;whiteSpace=wrap;html=1;aspect=fixed;strokeWidth=3;fillColor=#dae8fc;strokeColor=#6c8ebf;fontFamily=Times New Roman;fontSize=27;" vertex="1" parent="1">
          <mxGeometry x="1473" y="934" width="62" height="62" as="geometry" />
        </mxCell>
        <mxCell id="XxzaK0PWZzs4cHPtqlZt-112" value="" style="edgeStyle=orthogonalEdgeStyle;shape=connector;rounded=0;orthogonalLoop=1;jettySize=auto;html=1;labelBackgroundColor=default;strokeColor=default;strokeWidth=2;align=center;verticalAlign=middle;fontFamily=Times New Roman;fontSize=27;fontColor=default;endArrow=classic;" edge="1" parent="1" source="XxzaK0PWZzs4cHPtqlZt-114" target="XxzaK0PWZzs4cHPtqlZt-119">
          <mxGeometry relative="1" as="geometry" />
        </mxCell>
        <mxCell id="XxzaK0PWZzs4cHPtqlZt-113" value="" style="edgeStyle=orthogonalEdgeStyle;shape=connector;rounded=0;orthogonalLoop=1;jettySize=auto;html=1;labelBackgroundColor=default;strokeColor=default;strokeWidth=2;align=center;verticalAlign=middle;fontFamily=Times New Roman;fontSize=27;fontColor=default;endArrow=classic;" edge="1" parent="1">
          <mxGeometry relative="1" as="geometry">
            <mxPoint x="1677.0000000000005" y="844" as="sourcePoint" />
            <mxPoint x="1788" y="844.0000000000002" as="targetPoint" />
          </mxGeometry>
        </mxCell>
        <mxCell id="XxzaK0PWZzs4cHPtqlZt-114" value="&lt;font style=&quot;font-size: 27px;&quot;&gt;&lt;b style=&quot;font-size: 27px;&quot;&gt;D3&lt;/b&gt;&lt;/font&gt;" style="ellipse;whiteSpace=wrap;html=1;aspect=fixed;strokeWidth=3;fillColor=#d5e8d4;strokeColor=#82b366;fontFamily=Times New Roman;fontSize=27;" vertex="1" parent="1">
          <mxGeometry x="1620" y="813" width="62" height="62" as="geometry" />
        </mxCell>
        <mxCell id="XxzaK0PWZzs4cHPtqlZt-115" value="" style="edgeStyle=orthogonalEdgeStyle;shape=connector;rounded=0;orthogonalLoop=1;jettySize=auto;html=1;labelBackgroundColor=default;strokeColor=default;strokeWidth=2;align=center;verticalAlign=middle;fontFamily=Times New Roman;fontSize=27;fontColor=default;endArrow=classic;" edge="1" parent="1">
          <mxGeometry relative="1" as="geometry">
            <mxPoint x="1677.0000000000005" y="1086" as="sourcePoint" />
            <mxPoint x="1788" y="1086" as="targetPoint" />
          </mxGeometry>
        </mxCell>
        <mxCell id="XxzaK0PWZzs4cHPtqlZt-116" value="&lt;font style=&quot;font-size: 27px;&quot;&gt;&lt;b style=&quot;font-size: 27px;&quot;&gt;D5&lt;/b&gt;&lt;/font&gt;" style="ellipse;whiteSpace=wrap;html=1;aspect=fixed;strokeWidth=3;fillColor=#d5e8d4;strokeColor=#82b366;fontFamily=Times New Roman;fontSize=27;" vertex="1" parent="1">
          <mxGeometry x="1620" y="1055" width="62" height="62" as="geometry" />
        </mxCell>
        <mxCell id="XxzaK0PWZzs4cHPtqlZt-117" value="" style="edgeStyle=orthogonalEdgeStyle;shape=connector;rounded=0;orthogonalLoop=1;jettySize=auto;html=1;labelBackgroundColor=default;strokeColor=default;strokeWidth=2;align=center;verticalAlign=middle;fontFamily=Times New Roman;fontSize=27;fontColor=default;endArrow=classic;" edge="1" parent="1" source="XxzaK0PWZzs4cHPtqlZt-119" target="XxzaK0PWZzs4cHPtqlZt-116">
          <mxGeometry relative="1" as="geometry" />
        </mxCell>
        <mxCell id="XxzaK0PWZzs4cHPtqlZt-118" value="" style="edgeStyle=orthogonalEdgeStyle;shape=connector;rounded=0;orthogonalLoop=1;jettySize=auto;html=1;labelBackgroundColor=default;strokeColor=default;strokeWidth=2;align=center;verticalAlign=middle;fontFamily=Times New Roman;fontSize=27;fontColor=default;endArrow=classic;" edge="1" parent="1">
          <mxGeometry relative="1" as="geometry">
            <mxPoint x="1676.9999045617924" y="965.0769230769231" as="sourcePoint" />
            <mxPoint x="1788" y="965" as="targetPoint" />
          </mxGeometry>
        </mxCell>
        <mxCell id="XxzaK0PWZzs4cHPtqlZt-119" value="&lt;font style=&quot;font-size: 27px;&quot;&gt;&lt;b style=&quot;font-size: 27px;&quot;&gt;D4&lt;/b&gt;&lt;/font&gt;" style="ellipse;whiteSpace=wrap;html=1;aspect=fixed;strokeWidth=3;fillColor=#d5e8d4;strokeColor=#82b366;fontFamily=Times New Roman;fontSize=27;" vertex="1" parent="1">
          <mxGeometry x="1620" y="934" width="62" height="62" as="geometry" />
        </mxCell>
        <mxCell id="XxzaK0PWZzs4cHPtqlZt-136" style="edgeStyle=orthogonalEdgeStyle;shape=connector;rounded=0;orthogonalLoop=1;jettySize=auto;html=1;labelBackgroundColor=default;strokeColor=default;strokeWidth=2;align=center;verticalAlign=middle;fontFamily=Times New Roman;fontSize=27;fontColor=default;endArrow=classic;" edge="1" parent="1" source="XxzaK0PWZzs4cHPtqlZt-121">
          <mxGeometry relative="1" as="geometry">
            <mxPoint x="1619.0094235068873" y="723" as="targetPoint" />
          </mxGeometry>
        </mxCell>
        <mxCell id="XxzaK0PWZzs4cHPtqlZt-121" value="&lt;font style=&quot;font-size: 27px;&quot;&gt;&lt;b style=&quot;font-size: 27px;&quot;&gt;P2&lt;/b&gt;&lt;/font&gt;" style="ellipse;whiteSpace=wrap;html=1;aspect=fixed;strokeWidth=3;fontFamily=Times New Roman;fontSize=27;" vertex="1" parent="1">
          <mxGeometry x="1330" y="692" width="62" height="62" as="geometry" />
        </mxCell>
        <mxCell id="XxzaK0PWZzs4cHPtqlZt-124" value="" style="edgeStyle=orthogonalEdgeStyle;shape=connector;rounded=0;orthogonalLoop=1;jettySize=auto;html=1;labelBackgroundColor=default;strokeColor=default;strokeWidth=2;align=center;verticalAlign=middle;fontFamily=Times New Roman;fontSize=27;fontColor=default;endArrow=classic;" edge="1" parent="1" source="XxzaK0PWZzs4cHPtqlZt-126" target="XxzaK0PWZzs4cHPtqlZt-114">
          <mxGeometry relative="1" as="geometry" />
        </mxCell>
        <mxCell id="XxzaK0PWZzs4cHPtqlZt-125" value="" style="edgeStyle=orthogonalEdgeStyle;shape=connector;rounded=0;orthogonalLoop=1;jettySize=auto;html=1;labelBackgroundColor=default;strokeColor=default;strokeWidth=2;align=center;verticalAlign=middle;fontFamily=Times New Roman;fontSize=27;fontColor=default;endArrow=classic;" edge="1" parent="1">
          <mxGeometry relative="1" as="geometry">
            <mxPoint x="1676.9999045617924" y="723.0769230769231" as="sourcePoint" />
            <mxPoint x="1788" y="723" as="targetPoint" />
          </mxGeometry>
        </mxCell>
        <mxCell id="XxzaK0PWZzs4cHPtqlZt-126" value="&lt;font style=&quot;font-size: 27px;&quot;&gt;&lt;b style=&quot;font-size: 27px;&quot;&gt;D2&lt;/b&gt;&lt;/font&gt;" style="ellipse;whiteSpace=wrap;html=1;aspect=fixed;strokeWidth=3;fillColor=#d5e8d4;strokeColor=#82b366;fontFamily=Times New Roman;fontSize=27;" vertex="1" parent="1">
          <mxGeometry x="1620" y="692" width="62" height="62" as="geometry" />
        </mxCell>
        <mxCell id="XxzaK0PWZzs4cHPtqlZt-129" value="" style="endArrow=classic;html=1;rounded=0;labelBackgroundColor=default;strokeColor=default;strokeWidth=2;align=center;verticalAlign=middle;fontFamily=Times New Roman;fontSize=27;fontColor=default;shape=connector;exitX=0.5;exitY=0;exitDx=0;exitDy=0;entryX=0;entryY=1;entryDx=0;entryDy=0;" edge="1" parent="1" source="XxzaK0PWZzs4cHPtqlZt-105" target="XxzaK0PWZzs4cHPtqlZt-126">
          <mxGeometry width="50" height="50" relative="1" as="geometry">
            <mxPoint x="1331" y="885" as="sourcePoint" />
            <mxPoint x="1539" y="769" as="targetPoint" />
          </mxGeometry>
        </mxCell>
        <mxCell id="XxzaK0PWZzs4cHPtqlZt-130" value="" style="endArrow=classic;html=1;rounded=0;labelBackgroundColor=default;strokeColor=default;strokeWidth=2;align=center;verticalAlign=middle;fontFamily=Times New Roman;fontSize=27;fontColor=default;shape=connector;entryX=0;entryY=1;entryDx=0;entryDy=0;exitX=0.5;exitY=0;exitDx=0;exitDy=0;" edge="1" parent="1" source="XxzaK0PWZzs4cHPtqlZt-100" target="XxzaK0PWZzs4cHPtqlZt-111">
          <mxGeometry width="50" height="50" relative="1" as="geometry">
            <mxPoint x="1422" y="1093" as="sourcePoint" />
            <mxPoint x="1501" y="1002" as="targetPoint" />
          </mxGeometry>
        </mxCell>
        <mxCell id="XxzaK0PWZzs4cHPtqlZt-138" value="&lt;span style=&quot;font-size: 27px;&quot;&gt;&lt;b style=&quot;font-size: 27px;&quot;&gt;PANet + P2&lt;/b&gt;&lt;/span&gt;" style="text;html=1;align=center;verticalAlign=middle;resizable=0;points=[];autosize=1;strokeColor=none;fillColor=none;fontSize=27;fontFamily=Times New Roman;fontColor=default;" vertex="1" parent="1">
          <mxGeometry x="923" y="1165" width="151" height="44" as="geometry" />
        </mxCell>
        <mxCell id="XxzaK0PWZzs4cHPtqlZt-139" value="&lt;span style=&quot;font-size: 27px;&quot;&gt;&lt;b style=&quot;font-size: 27px;&quot;&gt;BiFPN + P2&lt;/b&gt;&lt;/span&gt;" style="text;html=1;align=center;verticalAlign=middle;resizable=0;points=[];autosize=1;strokeColor=none;fillColor=none;fontSize=27;fontFamily=Times New Roman;fontColor=default;" vertex="1" parent="1">
          <mxGeometry x="1472" y="1166" width="155" height="44" as="geometry" />
        </mxCell>
        <mxCell id="XxzaK0PWZzs4cHPtqlZt-140" value="&lt;span style=&quot;font-size: 27px;&quot;&gt;&lt;b style=&quot;font-size: 27px;&quot;&gt;PANet&lt;/b&gt;&lt;/span&gt;" style="text;html=1;align=center;verticalAlign=middle;resizable=0;points=[];autosize=1;strokeColor=none;fillColor=none;fontSize=27;fontFamily=Times New Roman;fontColor=default;" vertex="1" parent="1">
          <mxGeometry x="376" y="1159" width="92" height="44" as="geometry" />
        </mxCell>
      </root>
    </mxGraphModel>
  </diagram>
</mxfile>
